<svg xmlns="http://www.w3.org/2000/svg" viewBox="0 0 512 512">
  
  <g fill="#000000">
    
    <path data-region="cloth" d="&#xA;      M 256 56&#xA;      C 226 64 196 92 174 132&#xA;      C 152 174 134 226 122 280&#xA;      C 112 326 106 374 102 416&#xA;      L 80 470&#xA;      L 156 462&#xA;      L 200 480&#xA;      L 256 470&#xA;      L 312 480&#xA;      L 356 462&#xA;      L 432 470&#xA;      L 410 416&#xA;      C 406 374 400 326 390 280&#xA;      C 378 226 360 174 338 132&#xA;      C 316 92 286 64 256 56 Z"></path>
    
    <path data-region="cavity" d="&#xA;      M 256 184&#xA;      C 232 192 212 216 196 250&#xA;      C 184 280 176 318 172 354&#xA;      L 166 410&#xA;      C 182 414 206 412 232 410&#xA;      L 256 408&#xA;      L 280 410&#xA;      C 306 412 330 414 346 410&#xA;      L 340 354&#xA;      C 336 318 328 280 316 250&#xA;      C 300 216 280 192 256 184 Z"></path>
  </g>
</svg>